<mxfile host="app.diagrams.net" agent="Mozilla/5.0 (Windows NT 10.0; Win64; x64) AppleWebKit/537.36 (KHTML, like Gecko) Chrome/133.0.0.0 Safari/537.36 Edg/133.0.0.0" version="26.1.0">
  <diagram name="Page-1" id="OCv9rZutqN8-sFXTKyTg">
    <mxGraphModel dx="1426" dy="755" grid="1" gridSize="10" guides="1" tooltips="1" connect="1" arrows="1" fold="1" page="1" pageScale="1" pageWidth="850" pageHeight="1100" math="0" shadow="0">
      <root>
        <mxCell id="0" />
        <mxCell id="1" parent="0" />
        <mxCell id="ACh6TMmFV7nZ-EFrrwbJ-1" value="Giảng viên" style="swimlane;startSize=20;whiteSpace=wrap;html=1;fontStyle=1" vertex="1" parent="1">
          <mxGeometry x="60" y="150" width="390" height="980" as="geometry" />
        </mxCell>
        <mxCell id="ACh6TMmFV7nZ-EFrrwbJ-2" value="" style="ellipse;html=1;shape=startState;fillColor=#000000;strokeColor=#ff0000;fontStyle=1" vertex="1" parent="ACh6TMmFV7nZ-EFrrwbJ-1">
          <mxGeometry x="170" y="30" width="30" height="30" as="geometry" />
        </mxCell>
        <mxCell id="ACh6TMmFV7nZ-EFrrwbJ-3" value="" style="edgeStyle=orthogonalEdgeStyle;html=1;verticalAlign=bottom;endArrow=open;endSize=8;strokeColor=#ff0000;rounded=0;fontStyle=1" edge="1" parent="ACh6TMmFV7nZ-EFrrwbJ-1" source="ACh6TMmFV7nZ-EFrrwbJ-2">
          <mxGeometry relative="1" as="geometry">
            <mxPoint x="185" y="120" as="targetPoint" />
          </mxGeometry>
        </mxCell>
        <mxCell id="ACh6TMmFV7nZ-EFrrwbJ-4" value="Chọn học viên" style="rounded=1;whiteSpace=wrap;html=1;fontStyle=1" vertex="1" parent="ACh6TMmFV7nZ-EFrrwbJ-1">
          <mxGeometry x="125" y="220" width="120" height="60" as="geometry" />
        </mxCell>
        <mxCell id="ACh6TMmFV7nZ-EFrrwbJ-5" style="edgeStyle=orthogonalEdgeStyle;rounded=0;orthogonalLoop=1;jettySize=auto;html=1;fontStyle=1" edge="1" parent="ACh6TMmFV7nZ-EFrrwbJ-1" source="ACh6TMmFV7nZ-EFrrwbJ-6" target="ACh6TMmFV7nZ-EFrrwbJ-13">
          <mxGeometry relative="1" as="geometry" />
        </mxCell>
        <mxCell id="ACh6TMmFV7nZ-EFrrwbJ-6" value="Xem tin nhắn" style="rounded=1;whiteSpace=wrap;html=1;fontStyle=1" vertex="1" parent="ACh6TMmFV7nZ-EFrrwbJ-1">
          <mxGeometry x="125" y="300" width="120" height="60" as="geometry" />
        </mxCell>
        <mxCell id="ACh6TMmFV7nZ-EFrrwbJ-7" value="Truy cập chat box" style="rounded=1;whiteSpace=wrap;html=1;fontStyle=1" vertex="1" parent="ACh6TMmFV7nZ-EFrrwbJ-1">
          <mxGeometry x="125" y="120" width="120" height="60" as="geometry" />
        </mxCell>
        <mxCell id="ACh6TMmFV7nZ-EFrrwbJ-8" style="edgeStyle=orthogonalEdgeStyle;rounded=0;orthogonalLoop=1;jettySize=auto;html=1;fontStyle=1" edge="1" parent="ACh6TMmFV7nZ-EFrrwbJ-1" source="ACh6TMmFV7nZ-EFrrwbJ-9" target="ACh6TMmFV7nZ-EFrrwbJ-10">
          <mxGeometry relative="1" as="geometry" />
        </mxCell>
        <mxCell id="ACh6TMmFV7nZ-EFrrwbJ-9" value="Soạn tin nhắn" style="rounded=1;whiteSpace=wrap;html=1;fontStyle=1" vertex="1" parent="ACh6TMmFV7nZ-EFrrwbJ-1">
          <mxGeometry x="190" y="410" width="120" height="60" as="geometry" />
        </mxCell>
        <mxCell id="ACh6TMmFV7nZ-EFrrwbJ-10" value="Gửi tin nhắn" style="rounded=1;whiteSpace=wrap;html=1;fontStyle=1" vertex="1" parent="ACh6TMmFV7nZ-EFrrwbJ-1">
          <mxGeometry x="190" y="510" width="120" height="60" as="geometry" />
        </mxCell>
        <mxCell id="ACh6TMmFV7nZ-EFrrwbJ-11" style="edgeStyle=orthogonalEdgeStyle;rounded=0;orthogonalLoop=1;jettySize=auto;html=1;entryX=0.5;entryY=0;entryDx=0;entryDy=0;fontStyle=1" edge="1" parent="ACh6TMmFV7nZ-EFrrwbJ-1" source="ACh6TMmFV7nZ-EFrrwbJ-13" target="ACh6TMmFV7nZ-EFrrwbJ-9">
          <mxGeometry relative="1" as="geometry">
            <Array as="points">
              <mxPoint x="250" y="400" />
              <mxPoint x="250" y="400" />
            </Array>
          </mxGeometry>
        </mxCell>
        <mxCell id="ACh6TMmFV7nZ-EFrrwbJ-12" style="edgeStyle=orthogonalEdgeStyle;rounded=0;orthogonalLoop=1;jettySize=auto;html=1;entryX=0.5;entryY=0;entryDx=0;entryDy=0;fontStyle=1" edge="1" parent="ACh6TMmFV7nZ-EFrrwbJ-1" source="ACh6TMmFV7nZ-EFrrwbJ-13" target="ACh6TMmFV7nZ-EFrrwbJ-14">
          <mxGeometry relative="1" as="geometry">
            <Array as="points">
              <mxPoint x="110" y="400" />
              <mxPoint x="110" y="400" />
            </Array>
          </mxGeometry>
        </mxCell>
        <mxCell id="ACh6TMmFV7nZ-EFrrwbJ-13" value="" style="line;strokeWidth=4;html=1;perimeter=backbonePerimeter;points=[];outlineConnect=0;fontStyle=1" vertex="1" parent="ACh6TMmFV7nZ-EFrrwbJ-1">
          <mxGeometry x="105" y="380" width="160" height="10" as="geometry" />
        </mxCell>
        <mxCell id="ACh6TMmFV7nZ-EFrrwbJ-14" value="Đánh dấu đã đọc" style="rounded=1;whiteSpace=wrap;html=1;fontStyle=1" vertex="1" parent="ACh6TMmFV7nZ-EFrrwbJ-1">
          <mxGeometry x="50" y="410" width="120" height="60" as="geometry" />
        </mxCell>
        <mxCell id="ACh6TMmFV7nZ-EFrrwbJ-15" value="Hệ Thống" style="swimlane;startSize=20;whiteSpace=wrap;html=1;fontStyle=1" vertex="1" parent="1">
          <mxGeometry x="451" y="150" width="309" height="980" as="geometry" />
        </mxCell>
        <mxCell id="ACh6TMmFV7nZ-EFrrwbJ-16" value="Tải danh sách học viên" style="rounded=1;whiteSpace=wrap;html=1;fontStyle=1" vertex="1" parent="ACh6TMmFV7nZ-EFrrwbJ-15">
          <mxGeometry x="119" y="120" width="120" height="60" as="geometry" />
        </mxCell>
        <mxCell id="ACh6TMmFV7nZ-EFrrwbJ-17" value="Tải lịch sử chat" style="rounded=1;whiteSpace=wrap;html=1;fontStyle=1" vertex="1" parent="ACh6TMmFV7nZ-EFrrwbJ-15">
          <mxGeometry x="119" y="220" width="120" height="60" as="geometry" />
        </mxCell>
        <mxCell id="ACh6TMmFV7nZ-EFrrwbJ-18" style="edgeStyle=orthogonalEdgeStyle;rounded=0;orthogonalLoop=1;jettySize=auto;html=1;fontStyle=1" edge="1" parent="ACh6TMmFV7nZ-EFrrwbJ-15" source="ACh6TMmFV7nZ-EFrrwbJ-19" target="ACh6TMmFV7nZ-EFrrwbJ-21">
          <mxGeometry relative="1" as="geometry" />
        </mxCell>
        <mxCell id="ACh6TMmFV7nZ-EFrrwbJ-19" value="Kiểm tra tin nhắn" style="rhombus;whiteSpace=wrap;html=1;fontStyle=1" vertex="1" parent="ACh6TMmFV7nZ-EFrrwbJ-15">
          <mxGeometry x="139" y="499" width="80" height="80" as="geometry" />
        </mxCell>
        <mxCell id="ACh6TMmFV7nZ-EFrrwbJ-20" style="edgeStyle=orthogonalEdgeStyle;rounded=0;orthogonalLoop=1;jettySize=auto;html=1;fontStyle=1" edge="1" parent="ACh6TMmFV7nZ-EFrrwbJ-15" source="ACh6TMmFV7nZ-EFrrwbJ-21" target="ACh6TMmFV7nZ-EFrrwbJ-24">
          <mxGeometry relative="1" as="geometry" />
        </mxCell>
        <mxCell id="ACh6TMmFV7nZ-EFrrwbJ-21" value="Lưu và gửi tin nhắn" style="rounded=1;whiteSpace=wrap;html=1;fontStyle=1" vertex="1" parent="ACh6TMmFV7nZ-EFrrwbJ-15">
          <mxGeometry x="119" y="608" width="120" height="60" as="geometry" />
        </mxCell>
        <mxCell id="ACh6TMmFV7nZ-EFrrwbJ-22" value="" style="ellipse;html=1;shape=endState;fillColor=#000000;strokeColor=#ff0000;fontStyle=1" vertex="1" parent="ACh6TMmFV7nZ-EFrrwbJ-15">
          <mxGeometry x="-211" y="920" width="30" height="30" as="geometry" />
        </mxCell>
        <mxCell id="ACh6TMmFV7nZ-EFrrwbJ-23" style="edgeStyle=orthogonalEdgeStyle;rounded=0;orthogonalLoop=1;jettySize=auto;html=1;entryX=0.5;entryY=0;entryDx=0;entryDy=0;fontStyle=1" edge="1" parent="ACh6TMmFV7nZ-EFrrwbJ-15" source="ACh6TMmFV7nZ-EFrrwbJ-24" target="ACh6TMmFV7nZ-EFrrwbJ-25">
          <mxGeometry relative="1" as="geometry" />
        </mxCell>
        <mxCell id="ACh6TMmFV7nZ-EFrrwbJ-24" value="Gửi thông báo tin nhắn mới cho học viên" style="rounded=1;whiteSpace=wrap;html=1;fontStyle=1" vertex="1" parent="ACh6TMmFV7nZ-EFrrwbJ-15">
          <mxGeometry x="119" y="699" width="120" height="60" as="geometry" />
        </mxCell>
        <mxCell id="ACh6TMmFV7nZ-EFrrwbJ-25" value="Cập nhật trạng thái chat" style="rounded=1;whiteSpace=wrap;html=1;fontStyle=1" vertex="1" parent="ACh6TMmFV7nZ-EFrrwbJ-15">
          <mxGeometry x="119" y="800" width="120" height="60" as="geometry" />
        </mxCell>
        <mxCell id="ACh6TMmFV7nZ-EFrrwbJ-26" style="edgeStyle=orthogonalEdgeStyle;rounded=0;orthogonalLoop=1;jettySize=auto;html=1;entryX=0.5;entryY=0;entryDx=0;entryDy=0;fontStyle=1" edge="1" parent="ACh6TMmFV7nZ-EFrrwbJ-15" source="ACh6TMmFV7nZ-EFrrwbJ-25" target="ACh6TMmFV7nZ-EFrrwbJ-22">
          <mxGeometry relative="1" as="geometry">
            <Array as="points">
              <mxPoint x="179" y="890" />
              <mxPoint x="-196" y="890" />
            </Array>
          </mxGeometry>
        </mxCell>
        <mxCell id="ACh6TMmFV7nZ-EFrrwbJ-27" value="&lt;span style=&quot;font-size: 24px;&quot;&gt;Chat với học viên&lt;/span&gt;" style="text;html=1;align=center;verticalAlign=middle;whiteSpace=wrap;rounded=0;fontStyle=1" vertex="1" parent="1">
          <mxGeometry x="170" y="110" width="541" height="30" as="geometry" />
        </mxCell>
        <mxCell id="ACh6TMmFV7nZ-EFrrwbJ-28" style="edgeStyle=orthogonalEdgeStyle;rounded=0;orthogonalLoop=1;jettySize=auto;html=1;fontStyle=1" edge="1" parent="1" source="ACh6TMmFV7nZ-EFrrwbJ-7" target="ACh6TMmFV7nZ-EFrrwbJ-16">
          <mxGeometry relative="1" as="geometry" />
        </mxCell>
        <mxCell id="ACh6TMmFV7nZ-EFrrwbJ-29" style="edgeStyle=orthogonalEdgeStyle;rounded=0;orthogonalLoop=1;jettySize=auto;html=1;fontStyle=1" edge="1" parent="1" source="ACh6TMmFV7nZ-EFrrwbJ-16" target="ACh6TMmFV7nZ-EFrrwbJ-4">
          <mxGeometry relative="1" as="geometry">
            <Array as="points">
              <mxPoint x="630" y="350" />
              <mxPoint x="245" y="350" />
            </Array>
          </mxGeometry>
        </mxCell>
        <mxCell id="ACh6TMmFV7nZ-EFrrwbJ-30" style="edgeStyle=orthogonalEdgeStyle;rounded=0;orthogonalLoop=1;jettySize=auto;html=1;entryX=0;entryY=0.5;entryDx=0;entryDy=0;fontStyle=1" edge="1" parent="1" source="ACh6TMmFV7nZ-EFrrwbJ-4" target="ACh6TMmFV7nZ-EFrrwbJ-17">
          <mxGeometry relative="1" as="geometry" />
        </mxCell>
        <mxCell id="ACh6TMmFV7nZ-EFrrwbJ-31" style="edgeStyle=orthogonalEdgeStyle;rounded=0;orthogonalLoop=1;jettySize=auto;html=1;entryX=1;entryY=0.5;entryDx=0;entryDy=0;fontStyle=1" edge="1" parent="1" source="ACh6TMmFV7nZ-EFrrwbJ-17" target="ACh6TMmFV7nZ-EFrrwbJ-6">
          <mxGeometry relative="1" as="geometry">
            <Array as="points">
              <mxPoint x="630" y="480" />
            </Array>
          </mxGeometry>
        </mxCell>
        <mxCell id="ACh6TMmFV7nZ-EFrrwbJ-32" style="edgeStyle=orthogonalEdgeStyle;rounded=0;orthogonalLoop=1;jettySize=auto;html=1;entryX=0;entryY=0.5;entryDx=0;entryDy=0;fontStyle=1" edge="1" parent="1" source="ACh6TMmFV7nZ-EFrrwbJ-10" target="ACh6TMmFV7nZ-EFrrwbJ-19">
          <mxGeometry relative="1" as="geometry" />
        </mxCell>
        <mxCell id="ACh6TMmFV7nZ-EFrrwbJ-33" style="edgeStyle=orthogonalEdgeStyle;rounded=0;orthogonalLoop=1;jettySize=auto;html=1;entryX=1;entryY=0.5;entryDx=0;entryDy=0;fontStyle=1" edge="1" parent="1" source="ACh6TMmFV7nZ-EFrrwbJ-19" target="ACh6TMmFV7nZ-EFrrwbJ-9">
          <mxGeometry relative="1" as="geometry">
            <Array as="points">
              <mxPoint x="630" y="590" />
            </Array>
          </mxGeometry>
        </mxCell>
        <mxCell id="ACh6TMmFV7nZ-EFrrwbJ-34" value="không hợp lệ" style="edgeLabel;html=1;align=center;verticalAlign=middle;resizable=0;points=[];fontStyle=1" vertex="1" connectable="0" parent="ACh6TMmFV7nZ-EFrrwbJ-33">
          <mxGeometry x="-0.2707" y="1" relative="1" as="geometry">
            <mxPoint as="offset" />
          </mxGeometry>
        </mxCell>
        <mxCell id="ACh6TMmFV7nZ-EFrrwbJ-35" style="edgeStyle=orthogonalEdgeStyle;rounded=0;orthogonalLoop=1;jettySize=auto;html=1;entryX=0;entryY=0.5;entryDx=0;entryDy=0;fontStyle=1" edge="1" parent="1" source="ACh6TMmFV7nZ-EFrrwbJ-14" target="ACh6TMmFV7nZ-EFrrwbJ-25">
          <mxGeometry relative="1" as="geometry">
            <Array as="points">
              <mxPoint x="170" y="980" />
            </Array>
          </mxGeometry>
        </mxCell>
      </root>
    </mxGraphModel>
  </diagram>
</mxfile>
